<svg xmlns="http://www.w3.org/2000/svg" width="980" height="580" viewBox="0 0 980 580">
  <rect width="100%" height="100%" fill="#ffffff"/>
  <text x="88" y="34" font-size="24" font-weight="700" fill="#111827">ResNet-50 Loss Curves</text>
  <text x="88" y="55" font-size="13" fill="#596172">Training loss and valid_unseen loss by epoch</text>
  <line x1="88" y1="498.00" x2="940" y2="498.00" stroke="#e7e8ec" stroke-width="1"/><line x1="88" y1="424.33" x2="940" y2="424.33" stroke="#e7e8ec" stroke-width="1"/><line x1="88" y1="350.67" x2="940" y2="350.67" stroke="#e7e8ec" stroke-width="1"/><line x1="88" y1="277.00" x2="940" y2="277.00" stroke="#e7e8ec" stroke-width="1"/><line x1="88" y1="203.33" x2="940" y2="203.33" stroke="#e7e8ec" stroke-width="1"/><line x1="88" y1="129.67" x2="940" y2="129.67" stroke="#e7e8ec" stroke-width="1"/><line x1="88" y1="56.00" x2="940" y2="56.00" stroke="#e7e8ec" stroke-width="1"/>
  <line x1="88" y1="56" x2="88" y2="498" stroke="#2d3748" stroke-width="1.4"/>
  <line x1="88" y1="498" x2="940" y2="498" stroke="#2d3748" stroke-width="1.4"/>
  <text x="74" y="503.00" text-anchor="end" font-size="13" fill="#596172">{value:.2f}</text><text x="74" y="429.33" text-anchor="end" font-size="13" fill="#596172">{value:.2f}</text><text x="74" y="355.67" text-anchor="end" font-size="13" fill="#596172">{value:.2f}</text><text x="74" y="282.00" text-anchor="end" font-size="13" fill="#596172">{value:.2f}</text><text x="74" y="208.33" text-anchor="end" font-size="13" fill="#596172">{value:.2f}</text><text x="74" y="134.67" text-anchor="end" font-size="13" fill="#596172">{value:.2f}</text><text x="74" y="61.00" text-anchor="end" font-size="13" fill="#596172">{value:.2f}</text>
  <text x="88.00" y="538" text-anchor="middle" font-size="12" fill="#596172">{int(epoch)}</text><text x="132.84" y="538" text-anchor="middle" font-size="12" fill="#596172">{int(epoch)}</text><text x="222.53" y="538" text-anchor="middle" font-size="12" fill="#596172">{int(epoch)}</text><text x="312.21" y="538" text-anchor="middle" font-size="12" fill="#596172">{int(epoch)}</text><text x="401.89" y="538" text-anchor="middle" font-size="12" fill="#596172">{int(epoch)}</text><text x="491.58" y="538" text-anchor="middle" font-size="12" fill="#596172">{int(epoch)}</text><text x="581.26" y="538" text-anchor="middle" font-size="12" fill="#596172">{int(epoch)}</text><text x="670.95" y="538" text-anchor="middle" font-size="12" fill="#596172">{int(epoch)}</text><text x="760.63" y="538" text-anchor="middle" font-size="12" fill="#596172">{int(epoch)}</text><text x="850.32" y="538" text-anchor="middle" font-size="12" fill="#596172">{int(epoch)}</text><text x="940.00" y="538" text-anchor="middle" font-size="12" fill="#596172">{int(epoch)}</text>
  <text x="514.00" y="566" text-anchor="middle" font-size="14" fill="#374151">Epoch</text>
  <text transform="translate(24 277.00) rotate(-90)" text-anchor="middle" font-size="14" fill="#374151">Loss</text>
  <polyline fill="none" stroke="#2563eb" stroke-width="3" stroke-linejoin="round" stroke-linecap="round" points="88.00,86.48 132.84,117.22 177.68,129.14 222.53,121.37 267.37,121.35 312.21,155.07 357.05,195.84 401.89,217.73 446.74,236.13 491.58,253.47 536.42,262.63 581.26,270.53 626.11,280.26 670.95,290.56 715.79,292.07 760.63,295.09 805.47,300.26 850.32,306.02 895.16,307.01 940.00,307.47"/>
  <polyline fill="none" stroke="#dc2626" stroke-width="3" stroke-linejoin="round" stroke-linecap="round" points="88.00,357.72 132.84,369.32 177.68,381.16 222.53,367.18 267.37,376.71 312.21,425.03 357.05,438.17 401.89,441.40 446.74,451.31 491.58,446.49 536.42,457.61 581.26,461.10 626.11,467.52 670.95,457.93 715.79,446.56 760.63,445.72 805.47,465.47 850.32,455.99 895.16,447.29 940.00,450.68"/>
  <circle cx="626.11" cy="467.52" r="5" fill="#dc2626" stroke="#ffffff" stroke-width="2"/>
  <line x1="626.11" y1="56" x2="626.11" y2="498" stroke="#dc2626" stroke-width="1.2" stroke-dasharray="5 5" opacity="0.7"/>
  <rect x="704" y="31" width="226" height="82" rx="8" fill="#f8fafc" stroke="#e2e8f0"/>
  <line x1="728" y1="58" x2="768" y2="58" stroke="#2563eb" stroke-width="3"/>
  <text x="780" y="63" font-size="14" fill="#111827">train_loss</text>
  <line x1="728" y1="86" x2="768" y2="86" stroke="#dc2626" stroke-width="3"/>
  <text x="780" y="91" font-size="14" fill="#111827">valid_unseen_loss</text>
  <text x="102" y="80" font-size="13" fill="#991b1b">Best valid: epoch 13, loss 0.7124</text>
</svg>
